<?xml version="1.0" encoding="utf-8"?>
<!-- Generator: Adobe Illustrator 21.0.0, SVG Export Plug-In . SVG Version: 6.00 Build 0)  -->
<svg version="1.1"
	 id="svg3949" inkscape:version="0.92.3 (2405546, 2018-03-11)" sodipodi:docname="Toni Logo 181204_2-c.svg" xmlns:cc="http://creativecommons.org/ns#" xmlns:dc="http://purl.org/dc/elements/1.1/" xmlns:inkscape="http://www.inkscape.org/namespaces/inkscape" xmlns:rdf="http://www.w3.org/1999/02/22-rdf-syntax-ns#" xmlns:sodipodi="http://sodipodi.sourceforge.net/DTD/sodipodi-0.dtd" xmlns:svg="http://www.w3.org/2000/svg"
	 xmlns="http://www.w3.org/2000/svg" xmlns:xlink="http://www.w3.org/1999/xlink" x="0px" y="0px" viewBox="0 0 197.8 81"
	 style="enable-background:new 0 0 197.8 81;" xml:space="preserve">
<style type="text/css">
	.st0{clip-path:url(#SVGID_2_);}
	.st1{clip-path:url(#SVGID_4_);}
	.st2{fill:none;stroke:#000000;stroke-width:0.25;stroke-linecap:round;stroke-linejoin:round;}
	.st3{clip-path:url(#SVGID_6_);}
	.st4{fill:#FF0000;stroke:#FF0000;stroke-linecap:round;stroke-linejoin:round;}
	.st5{clip-path:url(#SVGID_8_);}
	.st6{fill:#FFFF00;stroke:#FFFF00;stroke-linecap:round;stroke-linejoin:round;}
	.st7{clip-path:url(#SVGID_10_);}
	.st8{clip-path:url(#SVGID_12_);}
	.st9{fill:#0000FF;stroke:#0000FF;stroke-linecap:round;stroke-linejoin:round;}
	.st10{clip-path:url(#SVGID_14_);}
	.st11{clip-path:url(#SVGID_16_);}
	.st12{font-family:'TimesNewRoman';}
	.st13{font-size:7.7656px;}
	.st15{font-size:12.8452px;}
	.st16{font-size:12.8687px;}
	.st17{clip-path:url(#SVGID_18_);}
	.st18{stroke:#000000;stroke-linecap:round;stroke-linejoin:round;}
	.st19{fill:#000007;stroke:#000000;stroke-linecap:round;stroke-linejoin:round;}
	.st20{clip-path:url(#SVGID_20_);}
</style>
<sodipodi:namedview  bordercolor="#666666" borderopacity="1" gridtolerance="10" guidetolerance="10" id="namedview3951" inkscape:current-layer="svg3949" inkscape:cx="445.57963" inkscape:cy="553.97425" inkscape:pageopacity="0" inkscape:pageshadow="2" inkscape:window-height="1001" inkscape:window-maximized="1" inkscape:window-width="1920" inkscape:window-x="-9" inkscape:window-y="-9" inkscape:zoom="16.833333" objecttolerance="10" pagecolor="#ffffff" showgrid="false" showguides="false">
	</sodipodi:namedview>
<g>
	<g>
		<g>
			<g>
				<g>
					<g>
						<g>
							<defs>
								<rect id="SVGID_1_" x="-413.1" y="-170.9" width="1024" height="768"/>
							</defs>
							<clipPath id="SVGID_2_">
								<use xlink:href="#SVGID_1_"  style="overflow:visible;"/>
							</clipPath>
							<g id="g3839" class="st0">
							</g>
						</g>
					</g>
				</g>
			</g>
		</g>
	</g>
</g>
<g>
	<g>
		<g>
			<g>
				<g>
					<g>
						<g>
							<defs>
								<rect id="SVGID_3_" x="-413.1" y="-170.9" width="1024" height="768"/>
							</defs>
							<clipPath id="SVGID_4_">
								<use xlink:href="#SVGID_3_"  style="overflow:visible;"/>
							</clipPath>
							<g id="g3849" class="st1">
								<line id="polyline3841" class="st2" x1="0" y1="68.8" x2="39" y2="68.8"/>
								<line id="polyline3843" class="st2" x1="39" y1="68.8" x2="39" y2="34.3"/>
								<line id="polyline3845" class="st2" x1="34.5" y1="29.8" x2="0" y2="29.8"/>
								<line id="polyline3847" class="st2" x1="0" y1="29.8" x2="0" y2="68.8"/>
							</g>
						</g>
					</g>
				</g>
			</g>
		</g>
	</g>
</g>
<g>
	<g>
		<g>
			<g>
				<g>
					<g>
						<g>
							<defs>
								<rect id="SVGID_5_" x="-413.1" y="-170.9" width="1024" height="768"/>
							</defs>
							<clipPath id="SVGID_6_">
								<use xlink:href="#SVGID_5_"  style="overflow:visible;"/>
							</clipPath>
							<g id="g3863" class="st3">
								<path id="path3851" class="st4" d="M4.5,64.3v-2.8l2.8,2.8H4.5z"/>
								<path id="path3853" class="st4" d="M7.2,64.3l-2.8-2.8l2.8-2.8V64.3z"/>
								<path id="path3855" class="st4" d="M7.2,64.3v-5.5l24.5-19L7.2,64.3z"/>
								<path id="path3857" class="st4" d="M31.7,39.8l-24.5,19l24.5-24.5V39.8z"/>
								<path id="path3859" class="st4" d="M31.7,39.8v-5.5l2.8,2.8L31.7,39.8z"/>
								<path id="path3861" class="st4" d="M34.5,37l-2.8-2.8h2.8V37z"/>
							</g>
						</g>
					</g>
				</g>
			</g>
		</g>
	</g>
</g>
<g>
	<g>
		<g>
			<g>
				<g>
					<g>
						<g>
							<defs>
								<rect id="SVGID_7_" x="-413.1" y="-170.9" width="1024" height="768"/>
							</defs>
							<clipPath id="SVGID_8_">
								<use xlink:href="#SVGID_7_"  style="overflow:visible;"/>
							</clipPath>
							<g id="g3871" class="st5">
								<path id="path3865" class="st6" d="M12.8,64.3H7.2l5.5-5.5L12.8,64.3L12.8,64.3z"/>
								<path id="path3867" class="st6" d="M12.8,64.3v-5.5l21.7-16.2L12.8,64.3z"/>
								<path id="path3869" class="st6" d="M34.5,42.5L12.8,58.8L34.5,37V42.5z"/>
							</g>
						</g>
					</g>
				</g>
			</g>
		</g>
	</g>
</g>
<g>
	<g>
		<g>
			<g>
				<g>
					<g>
						<g>
							<defs>
								<rect id="SVGID_9_" x="-413.1" y="-170.9" width="1024" height="768"/>
							</defs>
							<clipPath id="SVGID_10_">
								<use xlink:href="#SVGID_9_"  style="overflow:visible;"/>
							</clipPath>
							<g id="g3877" class="st7">
								<line id="polyline3873" class="st2" x1="4.5" y1="64.3" x2="34.5" y2="64.3"/>
								<line id="polyline3875" class="st2" x1="34.5" y1="64.3" x2="34.5" y2="34.3"/>
							</g>
						</g>
					</g>
				</g>
			</g>
		</g>
	</g>
</g>
<g>
	<g>
		<g>
			<g>
				<g>
					<g>
						<g>
							<defs>
								<rect id="SVGID_11_" x="-413.1" y="-170.9" width="1024" height="768"/>
							</defs>
							<clipPath id="SVGID_12_">
								<use xlink:href="#SVGID_11_"  style="overflow:visible;"/>
							</clipPath>
							<g id="g3885" class="st8">
								<path id="path3879" class="st9" d="M4.5,61.6v-5.5l21.7-16.2L4.5,61.6z"/>
								<path id="path3881" class="st9" d="M26.2,39.8L4.5,56l21.7-21.8V39.8z"/>
								<path id="path3883" class="st9" d="M26.2,39.8v-5.5h5.5L26.2,39.8z"/>
							</g>
						</g>
					</g>
				</g>
			</g>
		</g>
	</g>
</g>
<g>
	<g>
		<g>
			<g>
				<g>
					<g>
						<g>
							<defs>
								<rect id="SVGID_13_" x="-413.1" y="-170.9" width="1024" height="768"/>
							</defs>
							<clipPath id="SVGID_14_">
								<use xlink:href="#SVGID_13_"  style="overflow:visible;"/>
							</clipPath>
							<g id="g3907" class="st10">
								<line id="polyline3887" class="st2" x1="34.5" y1="34.3" x2="4.5" y2="34.3"/>
								<line id="polyline3889" class="st2" x1="4.5" y1="34.3" x2="4.5" y2="64.3"/>
								<line id="polyline3897" class="st2" x1="39" y1="29.8" x2="197.8" y2="29.8"/>
								<line id="polyline3899" class="st2" x1="39" y1="34.3" x2="193.3" y2="34.3"/>
								<line id="polyline3905" class="st2" x1="193.3" y1="589.5" x2="197.8" y2="589.5"/>
							</g>
						</g>
					</g>
				</g>
			</g>
		</g>
	</g>
</g>
<g>
	<g>
		<g>
			<g>
				<g>
					<g>
						<g>
							<defs>
								<rect id="SVGID_15_" x="-413.1" y="-170.9" width="1024" height="768"/>
							</defs>
							<clipPath id="SVGID_16_">
								<use xlink:href="#SVGID_15_"  style="overflow:visible;"/>
							</clipPath>
							<g id="g3917" class="st11">
								<text id="text3909" transform="matrix(1 0 0 1 11.5016 16.1146)" font-weight="bold" class="st12 st13">seit</text>
								<text id="text3911" transform="matrix(1 0 0 1 9.3512 24.8568)" font-weight="bold" class="st12 st13">1995</text>
								<text id="text3913" transform="matrix(1 0 0 1 46.357 54.8958)" font-weight="bold" font-style="italic" class="st12 st15">SAMPERIO</text>
								<text id="text3915" transform="matrix(1 0 0 1 115.9313 54.8958)" font-weight="bold" class="st12 st16">Haustechnik</text>
							</g>
						</g>
					</g>
				</g>
			</g>
		</g>
	</g>
</g>
<g>
	<g>
		<g>
			<g>
				<g>
					<g>
						<g>
							<defs>
								<rect id="SVGID_17_" x="-413.1" y="-170.9" width="1024" height="768"/>
							</defs>
							<clipPath id="SVGID_18_">
								<use xlink:href="#SVGID_17_"  style="overflow:visible;"/>
							</clipPath>
							<g id="g3943" class="st17">
								<path id="path3919" class="st18" d="M0,68.8v-39l4.5,39H0z"/>
								<path id="path3921" class="st18" d="M4.5,68.8L0,29.8h4.5V68.8z"/>
								<path id="path3923" class="st18" d="M4.5,68.8v-4.5l30,4.5H4.5z"/>
								<path id="path3925" class="st18" d="M34.5,68.8l-30-4.5h30V68.8z"/>
								<path id="path3927" class="st18" d="M4.5,34.3v-4.5l30,4.5H4.5z"/>
								<path id="path3929" class="st18" d="M34.5,34.3l-30-4.5h30V34.3z"/>
								<path id="path3931" inkscape:connector-curvature="0" sodipodi:nodetypes="cccc" class="st18" d="M34.5,68.8v-88.2l4.5,88
									L34.5,68.8L34.5,68.8z"/>
								<path id="path3933" inkscape:connector-curvature="0" sodipodi:nodetypes="cccc" class="st18" d="M39,68.8l-4.5-88.2H39
									V68.8z"/>
								<path id="path3935" class="st18" d="M39,34.3v-4.5l154.4,4.5H39z"/>
								<path id="path3937" class="st18" d="M193.3,34.3L39,29.8h154.4L193.3,34.3L193.3,34.3z"/>
								<path id="path3941" inkscape:connector-curvature="0" sodipodi:nodetypes="ccccc" class="st19" d="M197.8,74.1h-4.3
									l-0.2-44.3h4.5V74.1z"/>
							</g>
						</g>
					</g>
				</g>
			</g>
		</g>
	</g>
</g>
<g>
	<g>
		<g>
			<g>
				<g>
					<g>
						<g>
							<defs>
								<rect id="SVGID_19_" x="-413.1" y="-170.9" width="1024" height="768"/>
							</defs>
							<clipPath id="SVGID_20_">
								<use xlink:href="#SVGID_19_"  style="overflow:visible;"/>
							</clipPath>
							<g id="g3947" class="st20">
								<text id="text3945" transform="matrix(1 0 0 1 46.0875 19.6379)" font-weight="bold" class="st12 st16">Heizung  Lüftung  Sanitär</text>
							</g>
						</g>
					</g>
				</g>
			</g> 
		</g>
	</g>
</g>
</svg>
